<svg width="25" height="24" viewBox="0 0 25 24" fill="none" xmlns="http://www.w3.org/2000/svg">
<path d="M8.31283 15.7108C7.89978 14.8966 7.66699 13.9755 7.66699 13C7.66699 9.78484 10.167 7.5 13.667 7C17.7487 6.4169 19.5003 4.16667 20.667 3C21.667 4.66667 23.267 8.8 21.667 12" stroke="currentColor" stroke-width="2" stroke-linecap="round" stroke-linejoin="round"/>
<path d="M2.66699 22C3.16699 19 5.1249 17.1355 9.66699 16" stroke="currentColor" stroke-width="2" stroke-linecap="round"/>
<path d="M19.5658 19.9288L21.667 22M20.7753 17.0459C20.7753 19.2805 18.9602 21.0919 16.7211 21.0919C14.4821 21.0919 12.667 19.2805 12.667 17.0459C12.667 14.8114 14.4821 13 16.7211 13C18.9602 13 20.7753 14.8114 20.7753 17.0459Z" stroke="currentColor" stroke-width="2" stroke-linecap="round"/>
</svg>
