<svg width="24" height="24" viewBox="0 0 18 18" fill="none" xmlns="http://www.w3.org/2000/svg">
<path d="M10.875 8.625C10.875 8.625 9 10.125 9 12.75" stroke="currentColor" stroke-width="2" stroke-linecap="round" stroke-linejoin="round"/>
<path d="M7.54725 6.79726C8.48422 5.86027 8.48422 4.34111 7.54725 3.40413C6.13345 1.99032 3.02308 2.27308 3.02308 2.27308C3.02308 2.27308 2.74032 5.38345 4.15413 6.79726C5.09111 7.73422 6.61027 7.73422 7.54725 6.79726Z" stroke="currentColor" stroke-width="2" stroke-linecap="round" stroke-linejoin="round"/>
<path d="M11.1023 8.39768C11.9055 9.20078 13.2076 9.20078 14.0107 8.39768C15.2226 7.18582 14.9802 4.51979 14.9802 4.51979C14.9802 4.51979 12.3142 4.27742 11.1023 5.48925C10.2992 6.29239 10.2992 7.5945 11.1023 8.39768Z" stroke="currentColor" stroke-width="2" stroke-linecap="round" stroke-linejoin="round"/>
<path d="M7.5 7.125C7.5 7.125 9 9 9 12.7495" stroke="currentColor" stroke-width="2" stroke-linecap="round" stroke-linejoin="round"/>
<path d="M15.75 15.75C14.1009 13.9103 11.6881 12.75 9 12.75C6.31194 12.75 3.89912 13.9103 2.25 15.75" stroke="currentColor" stroke-width="2" stroke-linecap="round" stroke-linejoin="round"/>
</svg>
