<svg width="25" height="24" viewBox="0 0 25 24" fill="none" xmlns="http://www.w3.org/2000/svg">
<path d="M18.9491 20H19.4393C20.5891 20 21.5037 19.4761 22.3249 18.7436C24.411 16.8826 19.5071 15 17.833 15M15.833 5.06877C16.0601 5.02373 16.2959 5 16.5378 5C18.3577 5 19.833 6.34315 19.833 8C19.833 9.65685 18.3577 11 16.5378 11C16.2959 11 16.0601 10.9763 15.833 10.9312" stroke="currentColor" stroke-width="2" stroke-linecap="round"/>
<path d="M4.81432 16.1112C3.63535 16.743 0.544147 18.0331 2.42689 19.6474C3.3466 20.436 4.37092 21 5.65873 21H13.0073C14.2951 21 15.3194 20.436 16.2391 19.6474C18.1219 18.0331 15.0307 16.743 13.8517 16.1112C11.087 14.6296 7.579 14.6296 4.81432 16.1112Z" stroke="currentColor" stroke-width="2"/>
<path d="M13.333 7.5C13.333 9.70914 11.5421 11.5 9.33301 11.5C7.12387 11.5 5.33301 9.70914 5.33301 7.5C5.33301 5.29086 7.12387 3.5 9.33301 3.5C11.5421 3.5 13.333 5.29086 13.333 7.5Z" stroke="currentColor" stroke-width="2"/>
</svg>
