<svg width="20" height="20" viewBox="0 0 20 20" fill="none" xmlns="http://www.w3.org/2000/svg">
<path d="M5 14.9788C5.10725 16.0691 5.34963 16.803 5.89743 17.3508C6.87997 18.3333 8.46133 18.3333 11.6241 18.3333C14.7868 18.3333 16.3683 18.3333 17.3508 17.3508C18.3333 16.3683 18.3333 14.7868 18.3333 11.6241C18.3333 8.46133 18.3333 6.87997 17.3508 5.89743C16.803 5.34963 16.0691 5.10725 14.9788 5" stroke="#1A1C18" stroke-width="2"/>
<path d="M1.66675 8.33341C1.66675 5.19071 1.66675 3.61937 2.64306 2.64306C3.61937 1.66675 5.19071 1.66675 8.33341 1.66675C11.4761 1.66675 13.0475 1.66675 14.0237 2.64306C15.0001 3.61937 15.0001 5.19071 15.0001 8.33341C15.0001 11.4761 15.0001 13.0475 14.0237 14.0237C13.0475 15.0001 11.4761 15.0001 8.33341 15.0001C5.19071 15.0001 3.61937 15.0001 2.64306 14.0237C1.66675 13.0475 1.66675 11.4761 1.66675 8.33341Z" stroke="#1A1C18" stroke-width="2"/>
<path d="M1.66675 9.26553C2.1826 9.19994 2.70411 9.16761 3.22651 9.1687C5.43646 9.12786 7.59228 9.73036 9.30933 10.8688C10.9017 11.9246 12.0207 13.3776 12.5001 15.0001" stroke="#1A1C18" stroke-width="2" stroke-linejoin="round"/>
<path d="M10.8333 5.83325H10.8408" stroke="#1A1C18" stroke-width="2" stroke-linecap="round" stroke-linejoin="round"/>
</svg>
