<svg width="16" height="20" viewBox="0 0 16 20" fill="none" xmlns="http://www.w3.org/2000/svg">
<path d="M1.33325 14.9841V8.08969C1.33325 5.06188 1.33325 3.54798 2.30956 2.60736C3.28588 1.66675 4.85722 1.66675 7.99992 1.66675C11.1426 1.66675 12.714 1.66675 13.6903 2.60736C14.6666 3.54798 14.6666 5.06188 14.6666 8.08969V14.9841C14.6666 16.9057 14.6666 17.8664 14.0226 18.2103C12.7753 18.8762 10.4359 16.6544 9.32492 15.9854C8.68059 15.5974 8.35842 15.4034 7.99992 15.4034C7.64142 15.4034 7.31925 15.5974 6.67492 15.9854C5.56392 16.6544 3.22448 18.8762 1.97729 18.2103C1.33325 17.8664 1.33325 16.9057 1.33325 14.9841Z" stroke="#767774" stroke-width="1.5" stroke-linecap="round" stroke-linejoin="round"/>
</svg>
