<svg width="21" height="20" viewBox="0 0 21 20" fill="none" xmlns="http://www.w3.org/2000/svg">
<path d="M9.75017 2.5C6.70881 2.50548 5.11618 2.58014 4.09838 3.59795C3 4.69633 3 6.46415 3 9.99975C3 13.5354 3 15.3032 4.09838 16.4016C5.19676 17.5 6.96458 17.5 10.5003 17.5C14.0358 17.5 15.8037 17.5 16.9021 16.4016C17.9198 15.3838 17.9945 13.7912 18 10.7498" stroke="#767774" stroke-width="1.5" stroke-linecap="round" stroke-linejoin="round"/>
<path d="M17.9997 5.02083L17.1667 5.01872C14.0529 5.01085 12.496 5.00691 11.4015 5.79363C11.0377 6.05507 10.7186 6.37346 10.4562 6.73652C9.66675 7.82905 9.66675 9.38599 9.66675 12.4997M17.9997 5.02083C18.0052 4.88531 17.9568 4.74896 17.8543 4.62753C17.2167 3.87214 15.5593 2.49976 15.5593 2.49976M17.9997 5.02083C17.9946 5.14236 17.9461 5.26322 17.8542 5.3721C17.2164 6.12734 15.5593 7.49976 15.5593 7.49976" stroke="#767774" stroke-width="1.5" stroke-linecap="round" stroke-linejoin="round"/>
</svg>
